<svg xmlns="http://www.w3.org/2000/svg" width="1040" height="460" viewBox="0 0 1040 460">
<style>
  .title { font: 700 20px Arial, sans-serif; fill: #17202a; }
  .axis-label, .scenario, .tick, .value { font: 12px Arial, sans-serif; fill: #334155; }
  .scenario { font-weight: 700; text-transform: capitalize; }
  .axis { stroke: #475569; stroke-width: 1.4; }
  .grid { stroke: #d8dee6; stroke-width: 1; }
</style>
<rect width="1040" height="460" fill="#ffffff" />
<text x="520.0" y="30" text-anchor="middle" class="title">Mean Completed Vehicles by Scenario</text>
<text x="18" y="230.0" transform="rotate(-90 18 230.0)" text-anchor="middle" class="axis-label">Vehicles</text>
<line x1="72.0" y1="54.0" x2="72.0" y2="364.0" class="axis" />
<line x1="72.0" y1="364.0" x2="1010.0" y2="364.0" class="axis" />
<g>
  <rect x="820" y="24" width="14" height="14" fill="#637083" rx="3" />
  <text x="842" y="36" class="tick">Fixed</text>
  <rect x="906" y="24" width="14" height="14" fill="#1f6feb" rx="3" />
  <text x="928" y="36" class="tick">Adaptive</text>
</g>
<line x1="67.0" y1="364.0" x2="1010.0" y2="364.0" class="axis" />
<text x="62" y="368.0" text-anchor="end" class="tick">0</text>
<line x1="67.0" y1="302.0" x2="1010.0" y2="302.0" class="grid" />
<text x="62" y="306.0" text-anchor="end" class="tick">41</text>
<line x1="67.0" y1="240.0" x2="1010.0" y2="240.0" class="grid" />
<text x="62" y="244.0" text-anchor="end" class="tick">82</text>
<line x1="67.0" y1="178.0" x2="1010.0" y2="178.0" class="grid" />
<text x="62" y="182.0" text-anchor="end" class="tick">123</text>
<line x1="67.0" y1="116.0" x2="1010.0" y2="116.0" class="grid" />
<text x="62" y="120.0" text-anchor="end" class="tick">164</text>
<line x1="67.0" y1="54.0" x2="1010.0" y2="54.0" class="grid" />
<text x="62" y="58.0" text-anchor="end" class="tick">206</text>
<text x="165.8" y="408" text-anchor="middle" class="scenario">alternating peak</text>
<rect x="118.8" y="89.4" width="42.0" height="274.6" fill="#637083" rx="4" />
<text x="139.8" y="83.4" text-anchor="middle" class="value">182.1</text>
<rect x="170.8" y="54.0" width="42.0" height="310.0" fill="#1f6feb" rx="4" />
<text x="191.8" y="48.0" text-anchor="middle" class="value">205.6</text>
<text x="353.4" y="408" text-anchor="middle" class="scenario">balanced</text>
<rect x="306.4" y="94.4" width="42.0" height="269.6" fill="#637083" rx="4" />
<text x="327.4" y="88.4" text-anchor="middle" class="value">178.8</text>
<rect x="358.4" y="91.5" width="42.0" height="272.5" fill="#1f6feb" rx="4" />
<text x="379.4" y="85.5" text-anchor="middle" class="value">180.7</text>
<text x="541.0" y="408" text-anchor="middle" class="scenario">ew heavy</text>
<rect x="494.0" y="125.0" width="42.0" height="239.0" fill="#637083" rx="4" />
<text x="515.0" y="119.0" text-anchor="middle" class="value">158.5</text>
<rect x="546.0" y="60.6" width="42.0" height="303.4" fill="#1f6feb" rx="4" />
<text x="567.0" y="54.6" text-anchor="middle" class="value">201.2</text>
<text x="728.6" y="408" text-anchor="middle" class="scenario">ns burst</text>
<rect x="681.6" y="123.1" width="42.0" height="240.9" fill="#637083" rx="4" />
<text x="702.6" y="117.1" text-anchor="middle" class="value">159.8</text>
<rect x="733.6" y="68.0" width="42.0" height="296.0" fill="#1f6feb" rx="4" />
<text x="754.6" y="62.0" text-anchor="middle" class="value">196.3</text>
<text x="916.2" y="408" text-anchor="middle" class="scenario">ns heavy</text>
<rect x="869.2" y="130.4" width="42.0" height="233.6" fill="#637083" rx="4" />
<text x="890.2" y="124.4" text-anchor="middle" class="value">154.9</text>
<rect x="921.2" y="67.7" width="42.0" height="296.3" fill="#1f6feb" rx="4" />
<text x="942.2" y="61.7" text-anchor="middle" class="value">196.5</text>
</svg>
