<svg xmlns="http://www.w3.org/2000/svg" width="1040" height="460" viewBox="0 0 1040 460">
<style>
  .title { font: 700 20px Arial, sans-serif; fill: #17202a; }
  .axis-label, .scenario, .tick, .value { font: 12px Arial, sans-serif; fill: #334155; }
  .scenario { font-weight: 700; text-transform: capitalize; }
  .axis { stroke: #475569; stroke-width: 1.4; }
  .grid { stroke: #d8dee6; stroke-width: 1; }
</style>
<rect width="1040" height="460" fill="#ffffff" />
<text x="520.0" y="30" text-anchor="middle" class="title">Mean Waiting Time by Scenario</text>
<text x="18" y="230.0" transform="rotate(-90 18 230.0)" text-anchor="middle" class="axis-label">Seconds</text>
<line x1="72.0" y1="54.0" x2="72.0" y2="364.0" class="axis" />
<line x1="72.0" y1="364.0" x2="1010.0" y2="364.0" class="axis" />
<g>
  <rect x="820" y="24" width="14" height="14" fill="#637083" rx="3" />
  <text x="842" y="36" class="tick">Fixed</text>
  <rect x="906" y="24" width="14" height="14" fill="#1f6feb" rx="3" />
  <text x="928" y="36" class="tick">Adaptive</text>
</g>
<line x1="67.0" y1="364.0" x2="1010.0" y2="364.0" class="axis" />
<text x="62" y="368.0" text-anchor="end" class="tick">0</text>
<line x1="67.0" y1="302.0" x2="1010.0" y2="302.0" class="grid" />
<text x="62" y="306.0" text-anchor="end" class="tick">11</text>
<line x1="67.0" y1="240.0" x2="1010.0" y2="240.0" class="grid" />
<text x="62" y="244.0" text-anchor="end" class="tick">22</text>
<line x1="67.0" y1="178.0" x2="1010.0" y2="178.0" class="grid" />
<text x="62" y="182.0" text-anchor="end" class="tick">33</text>
<line x1="67.0" y1="116.0" x2="1010.0" y2="116.0" class="grid" />
<text x="62" y="120.0" text-anchor="end" class="tick">44</text>
<line x1="67.0" y1="54.0" x2="1010.0" y2="54.0" class="grid" />
<text x="62" y="58.0" text-anchor="end" class="tick">55</text>
<text x="165.8" y="408" text-anchor="middle" class="scenario">alternating peak</text>
<rect x="118.8" y="54.0" width="42.0" height="310.0" fill="#637083" rx="4" />
<text x="139.8" y="48.0" text-anchor="middle" class="value">54.6</text>
<rect x="170.8" y="147.7" width="42.0" height="216.3" fill="#1f6feb" rx="4" />
<text x="191.8" y="141.7" text-anchor="middle" class="value">38.1</text>
<text x="353.4" y="408" text-anchor="middle" class="scenario">balanced</text>
<rect x="306.4" y="228.2" width="42.0" height="135.8" fill="#637083" rx="4" />
<text x="327.4" y="222.2" text-anchor="middle" class="value">23.9</text>
<rect x="358.4" y="239.7" width="42.0" height="124.3" fill="#1f6feb" rx="4" />
<text x="379.4" y="233.7" text-anchor="middle" class="value">21.9</text>
<text x="541.0" y="408" text-anchor="middle" class="scenario">ew heavy</text>
<rect x="494.0" y="79.2" width="42.0" height="284.8" fill="#637083" rx="4" />
<text x="515.0" y="73.2" text-anchor="middle" class="value">50.1</text>
<rect x="546.0" y="202.2" width="42.0" height="161.8" fill="#1f6feb" rx="4" />
<text x="567.0" y="196.2" text-anchor="middle" class="value">28.5</text>
<text x="728.6" y="408" text-anchor="middle" class="scenario">ns burst</text>
<rect x="681.6" y="113.5" width="42.0" height="250.5" fill="#637083" rx="4" />
<text x="702.6" y="107.5" text-anchor="middle" class="value">44.1</text>
<rect x="733.6" y="149.2" width="42.0" height="214.8" fill="#1f6feb" rx="4" />
<text x="754.6" y="143.2" text-anchor="middle" class="value">37.8</text>
<text x="916.2" y="408" text-anchor="middle" class="scenario">ns heavy</text>
<rect x="869.2" y="114.5" width="42.0" height="249.5" fill="#637083" rx="4" />
<text x="890.2" y="108.5" text-anchor="middle" class="value">43.9</text>
<rect x="921.2" y="196.4" width="42.0" height="167.6" fill="#1f6feb" rx="4" />
<text x="942.2" y="190.4" text-anchor="middle" class="value">29.5</text>
</svg>
